<svg xmlns="http://www.w3.org/2000/svg" data-name="Layer 2 copy" viewBox="0 0 32 40" x="0px" y="0px"><defs><style>
      .cls-1 {
        stroke-width: 0px;
      }
    </style></defs><path class="cls-1" d="m16,2.55176c-3.12695,0-5.6709,2.54395-5.6709,5.6709v1.80176h-.49219c-1.20801,0-2.29688.7627-2.70801,1.89844l-4.95508,13.66309c-.31934.88184-.18848,1.86719.34961,2.63574.53906.76758,1.4209,1.22656,2.3584,1.22656h22.23633c.9375,0,1.81934-.45898,2.3584-1.22656.53809-.76855.66895-1.75391.34961-2.63574l-4.95508-13.66309c-.41113-1.13574-1.5-1.89844-2.70801-1.89844h-.49219v-1.80176c0-3.12695-2.54395-5.6709-5.6709-5.6709Zm-3.6709,5.6709c0-2.02441,1.64648-3.6709,3.6709-3.6709s3.6709,1.64648,3.6709,3.6709v1.80176h-7.3418v-1.80176Zm9.83398,3.80176c.36914,0,.70215.2334.82715.58008l4.95508,13.66309c.09961.27344.06055.56738-.10645.80566s-.42969.375-.7207.375H4.88184c-.29102,0-.55371-.13672-.7207-.375s-.20605-.53223-.10645-.80566l4.95508-13.66309c.125-.34668.45801-.58008.82715-.58008h.49219v2.89258c0,.55273.44727,1,1,1s1-.44727,1-1v-2.89258h7.3418v2.89258c0,.55273.44727,1,1,1s1-.44727,1-1v-2.89258h.49219Z"/><text x="0" y="47" fill="#000000" font-size="5px" font-weight="bold" font-family="'Helvetica Neue', Helvetica, Arial-Unicode, Arial, Sans-serif">Created by Contributor Icons</text><text x="0" y="52" fill="#000000" font-size="5px" font-weight="bold" font-family="'Helvetica Neue', Helvetica, Arial-Unicode, Arial, Sans-serif">from the Noun Project</text></svg>