<svg width="201" height="262" viewBox="0 0 201 262" fill="none" xmlns="http://www.w3.org/2000/svg">
<path d="M19.5295 65.9901C21.6095 65.3001 23.4995 64.3501 25.4195 64.3101C32.8395 64.1301 40.2695 64.2401 48.1595 64.2401C48.1595 61.2101 48.1295 58.2201 48.1695 55.2201C48.2995 43.9601 51.3795 33.6301 57.9295 24.4001C77.7695 -3.54992 119.629 -4.39992 140.679 22.6801C148.039 32.1501 151.679 42.8701 151.859 54.8001C151.909 57.7401 151.869 60.6901 151.869 63.9101C152.779 63.9601 153.659 64.0401 154.529 64.0401C161.549 64.0501 168.569 64.0101 175.599 64.0601C179.629 64.0901 181.959 66.0701 182.449 69.9301C185.349 92.7801 188.189 115.63 191.079 138.48C193.239 155.59 195.579 172.68 197.559 189.82C198.479 197.78 196.939 205.6 194.419 213.16C185.079 241.25 159.809 259.31 129.639 259.41C109.829 259.47 90.0195 259.44 70.2095 259.31C37.3995 259.09 10.9595 237.95 3.74947 206.46C1.70947 197.56 2.52946 188.76 3.69946 179.87C6.59946 157.84 9.31947 135.79 12.0795 113.75C13.8895 99.3601 15.6095 84.9501 17.4895 70.5701C17.6695 69.0301 18.7095 67.6101 19.5295 65.9901ZM139.729 64.0301C139.729 64.0301 139.749 64.0601 140.139 64.0201C140.149 63.7801 140.149 63.5401 140.129 62.7501C140.139 60.1801 140.139 57.6101 140.299 54.5701C140.239 54.4201 140.179 54.2601 140.069 53.6301C139.969 52.6201 139.879 51.6101 139.779 50.6001C137.879 31.1301 120.739 15.5701 101.179 15.2301C78.2895 14.8401 56.5795 33.8201 60.7195 64.1601C65.7695 64.1601 70.8395 64.1601 75.8695 64.1301C75.8695 64.1301 75.8295 64.1701 76.4495 64.2301C77.8995 64.2101 79.3495 64.1801 80.7595 64.1301C80.7595 64.1301 80.7195 64.1601 81.3395 64.2301C99.0195 64.2001 116.709 64.1801 134.519 64.2401C134.519 64.2401 134.649 64.1501 135.199 64.2201C136.479 64.2201 137.749 64.2201 139.179 64.4301C139.379 64.3101 139.559 64.1801 139.729 64.0301Z" stroke="#010101" stroke-width="10" stroke-miterlimit="10"/>
</svg>
